<svg width="1440" height="1024" viewBox="0 0 1440 1024" fill="none" xmlns="http://www.w3.org/2000/svg">
  <defs>
    <linearGradient id="sky" x1="0" y1="0" x2="0" y2="1">
      <stop offset="0%" stop-color="#BEE3F8"/>
      <stop offset="50%" stop-color="#FEF3C7"/>
      <stop offset="100%" stop-color="#FFEDD5"/>
    </linearGradient>
    <linearGradient id="wave1" x1="0" y1="0" x2="1" y2="0">
      <stop offset="0%" stop-color="#93C5FD"/>
      <stop offset="100%" stop-color="#60A5FA"/>
    </linearGradient>
    <linearGradient id="wave2" x1="0" y1="0" x2="1" y2="0">
      <stop offset="0%" stop-color="#7DD3FC"/>
      <stop offset="100%" stop-color="#38BDF8"/>
    </linearGradient>
    <linearGradient id="wave3" x1="0" y1="0" x2="1" y2="0">
      <stop offset="0%" stop-color="#67E8F9"/>
      <stop offset="100%" stop-color="#22D3EE"/>
    </linearGradient>
  </defs>
  <rect width="1440" height="1024" fill="url(#sky)"/>
  <path d="M0 680 C240 640 320 720 560 700 C800 680 960 740 1200 710 C1320 695 1390 690 1440 695 L1440 1024 L0 1024 Z" fill="url(#wave1)" opacity="0.35"/>
  <path d="M0 740 C200 720 360 780 560 760 C820 735 980 800 1200 770 C1340 750 1400 755 1440 760 L1440 1024 L0 1024 Z" fill="url(#wave2)" opacity="0.35"/>
  <path d="M0 800 C180 780 340 830 560 820 C820 805 1020 860 1240 840 C1360 830 1410 835 1440 840 L1440 1024 L0 1024 Z" fill="url(#wave3)" opacity="0.40"/>
  <circle cx="1200" cy="180" r="60" fill="#FDE68A" opacity="0.8"/>
  <circle cx="1200" cy="180" r="62" fill="#FBBF24" opacity="0.25"/>
</svg>
